<svg id="illustration" xmlns="http://www.w3.org/2000/svg" xmlns:xlink="http://www.w3.org/1999/xlink" width="696" height="493" viewBox="0 0 696 493">
  <defs>
    <linearGradient id="linear-gradient" x1="0.148" y1="-0.224" x2="0.76" y2="1.194" gradientUnits="objectBoundingBox">
      <stop offset="0" stop-color="#fad961"/>
      <stop offset="1" stop-color="#ff52c1"/>
    </linearGradient>
    <linearGradient id="linear-gradient-2" x1="0.5" x2="0.5" y2="1" gradientUnits="objectBoundingBox">
      <stop offset="0" stop-color="#00c7fa"/>
      <stop offset="1" stop-color="#007dfa"/>
    </linearGradient>
    <linearGradient id="linear-gradient-3" x1="0.29" x2="0.902" y2="1.112" gradientUnits="objectBoundingBox">
      <stop offset="0" stop-color="#ff52c1"/>
      <stop offset="1" stop-color="#9952ff"/>
    </linearGradient>
  </defs>
  <g id="illustration-mockups" transform="translate(-7 -7)">
    <g id="Group_11" data-name="Group 11" transform="translate(7 7)">
      <rect id="Rectangle_1" data-name="Rectangle 1" width="657.638" height="410.833" rx="13.701"/>
      <rect id="Rectangle_2" data-name="Rectangle 2" width="657.638" height="410.833" rx="13.701" fill="#fff"/>
      <path id="Path_1" data-name="Path 1" d="M13.7,0H643.937a13.7,13.7,0,0,1,13.7,13.7V43.822H0V13.7A13.7,13.7,0,0,1,13.7,0Z"/>
      <path id="Path_2" data-name="Path 2" d="M13.7,0H643.937a13.7,13.7,0,0,1,13.7,13.7V43.822H0V13.7A13.7,13.7,0,0,1,13.7,0Z" fill="#00252e"/>
      <rect id="Rectangle_3" data-name="Rectangle 3" width="137.008" height="16.433" rx="3.425" transform="translate(49.323 13.694)" fill="#e1e8ee"/>
      <g id="Group_1" data-name="Group 1" transform="translate(591.874 15.064)">
        <rect id="Rectangle_4" data-name="Rectangle 4" width="21.921" height="2.739" rx="1.369" fill="#d8d8d8"/>
        <rect id="Rectangle_5" data-name="Rectangle 5" width="21.921" height="2.739" rx="1.369" transform="translate(0 5.478)" fill="#d8d8d8"/>
        <rect id="Rectangle_6" data-name="Rectangle 6" width="21.921" height="2.739" rx="1.369" transform="translate(0 10.956)" fill="#d8d8d8"/>
      </g>
      <g id="Group_4" data-name="Group 4" transform="translate(49.323 94.492)">
        <ellipse id="Ellipse_1" data-name="Ellipse 1" cx="32.882" cy="32.867" rx="32.882" ry="32.867" transform="translate(0 0)" fill="url(#linear-gradient)"/>
        <g id="Group_2" data-name="Group 2" transform="translate(104.126 8.217)">
          <rect id="Rectangle_7" data-name="Rectangle 7" width="78.78" height="10.956" rx="2.055" fill="#e1e8ee"/>
          <rect id="Rectangle_8" data-name="Rectangle 8" width="274.016" height="5.478" rx="2.055" transform="translate(0 21.911)" fill="#e1e8ee"/>
          <rect id="Rectangle_9" data-name="Rectangle 9" width="251.181" height="5.478" rx="2.055" transform="translate(0 32.867)" fill="#e1e8ee"/>
          <rect id="Rectangle_10" data-name="Rectangle 10" width="228.346" height="5.478" rx="2.055" transform="translate(0 43.822)" fill="#e1e8ee"/>
        </g>
        <g id="Group_3" data-name="Group 3" transform="translate(411.024 24.65)">
          <ellipse id="Ellipse_2" data-name="Ellipse 2" cx="8.22" cy="8.217" rx="8.22" ry="8.217" transform="translate(0 0)" fill="#a7b9c8"/>
          <ellipse id="Ellipse_3" data-name="Ellipse 3" cx="8.22" cy="8.217" rx="8.22" ry="8.217" transform="translate(43.843 0)" fill="#a7b9c8"/>
          <ellipse id="Ellipse_4" data-name="Ellipse 4" cx="8.22" cy="8.217" rx="8.22" ry="8.217" transform="translate(21.922 0)" fill="#a7b9c8"/>
          <ellipse id="Ellipse_5" data-name="Ellipse 5" cx="8.22" cy="8.217" rx="8.22" ry="8.217" transform="translate(65.764 0)" fill="#a7b9c8"/>
          <ellipse id="Ellipse_6" data-name="Ellipse 6" cx="8.22" cy="8.217" rx="8.22" ry="8.217" transform="translate(87.686 0)" fill="#a7b9c8"/>
        </g>
      </g>
      <g id="Group_7" data-name="Group 7" transform="translate(49.323 187.614)">
        <ellipse id="Ellipse_7" data-name="Ellipse 7" cx="30.827" cy="30.813" rx="30.827" ry="30.813" transform="translate(0 0)" fill="url(#linear-gradient-2)"/>
        <g id="Group_5" data-name="Group 5" transform="translate(102.07 6.162)">
          <rect id="Rectangle_11" data-name="Rectangle 11" width="78.78" height="10.956" rx="2.055" fill="#e1e8ee"/>
          <rect id="Rectangle_12" data-name="Rectangle 12" width="274.016" height="5.478" rx="2.055" transform="translate(0 21.911)" fill="#e1e8ee"/>
          <rect id="Rectangle_13" data-name="Rectangle 13" width="251.181" height="5.478" rx="2.055" transform="translate(0 32.867)" fill="#e1e8ee"/>
          <rect id="Rectangle_14" data-name="Rectangle 14" width="228.346" height="5.478" rx="2.055" transform="translate(0 43.822)" fill="#e1e8ee"/>
        </g>
        <g id="Group_6" data-name="Group 6" transform="translate(408.969 22.596)">
          <ellipse id="Ellipse_8" data-name="Ellipse 8" cx="8.22" cy="8.217" rx="8.22" ry="8.217" transform="translate(0 0)" fill="#a7b9c8"/>
          <ellipse id="Ellipse_9" data-name="Ellipse 9" cx="8.22" cy="8.217" rx="8.22" ry="8.217" transform="translate(43.843 0)" fill="#a7b9c8"/>
          <ellipse id="Ellipse_10" data-name="Ellipse 10" cx="8.22" cy="8.217" rx="8.22" ry="8.217" transform="translate(21.922 0)" fill="#a7b9c8"/>
        </g>
      </g>
      <g id="Group_10" data-name="Group 10" transform="translate(49.323 285.53)">
        <ellipse id="Ellipse_11" data-name="Ellipse 11" cx="30.827" cy="30.813" rx="30.827" ry="30.813" transform="translate(0 0)" fill="url(#linear-gradient-3)"/>
        <g id="Group_8" data-name="Group 8" transform="translate(102.07 6.162)">
          <rect id="Rectangle_15" data-name="Rectangle 15" width="78.78" height="10.956" rx="2.055" fill="#e1e8ee"/>
          <rect id="Rectangle_16" data-name="Rectangle 16" width="274.016" height="5.478" rx="2.055" transform="translate(0 21.911)" fill="#e1e8ee"/>
          <rect id="Rectangle_17" data-name="Rectangle 17" width="251.181" height="5.478" rx="2.055" transform="translate(0 32.867)" fill="#e1e8ee"/>
          <rect id="Rectangle_18" data-name="Rectangle 18" width="228.346" height="5.478" rx="2.055" transform="translate(0 43.822)" fill="#e1e8ee"/>
        </g>
        <g id="Group_9" data-name="Group 9" transform="translate(408.969 22.596)">
          <ellipse id="Ellipse_12" data-name="Ellipse 12" cx="8.22" cy="8.217" rx="8.22" ry="8.217" transform="translate(0 0)" fill="#a7b9c8"/>
          <ellipse id="Ellipse_13" data-name="Ellipse 13" cx="8.22" cy="8.217" rx="8.22" ry="8.217" transform="translate(43.843 0)" fill="#a7b9c8"/>
          <ellipse id="Ellipse_14" data-name="Ellipse 14" cx="8.22" cy="8.217" rx="8.22" ry="8.217" transform="translate(21.922 0)" fill="#a7b9c8"/>
          <ellipse id="Ellipse_15" data-name="Ellipse 15" cx="8.22" cy="8.217" rx="8.22" ry="8.217" transform="translate(65.764 0)" fill="#a7b9c8"/>
        </g>
      </g>
    </g>
    <g id="Group_12" data-name="Group 12" transform="translate(483.787 149.422)">
      <path id="Path_3" data-name="Path 3" d="M11.691,0h195.83a11.692,11.692,0,0,1,11.692,11.691v327.2a11.692,11.692,0,0,1-11.692,11.692H11.691A11.692,11.692,0,0,1,0,338.886V11.691A11.691,11.691,0,0,1,11.691,0Z"/>
      <path id="Path_4" data-name="Path 4" d="M11.691,0h195.83a11.692,11.692,0,0,1,11.692,11.691v327.2a11.692,11.692,0,0,1-11.692,11.692H11.691A11.692,11.692,0,0,1,0,338.886V11.691A11.691,11.691,0,0,1,11.691,0Z" fill="#fff"/>
    </g>
    <g id="Group_13" data-name="Group 13" transform="translate(483.787 149.422)">
      <path id="Path_5" data-name="Path 5" d="M11.691,0h195.83a11.692,11.692,0,0,1,11.692,11.691V37.4H0v-25.7A11.691,11.691,0,0,1,11.691,0Z"/>
      <path id="Path_6" data-name="Path 6" d="M11.691,0h195.83a11.692,11.692,0,0,1,11.692,11.691V37.4H0v-25.7A11.691,11.691,0,0,1,11.691,0Z" fill="#00252e"/>
    </g>
    <g id="Group_15" data-name="Group 15" transform="translate(505.8 162.277)">
      <rect id="Rectangle_19" data-name="Rectangle 19" width="71.244" height="14.023" rx="2.923" fill="#e1e8ee"/>
      <g id="Group_14" data-name="Group 14" transform="translate(155.111 1.169)">
        <rect id="Rectangle_20" data-name="Rectangle 20" width="18.706" height="2.337" rx="1.168" fill="#d8d8d8"/>
        <rect id="Rectangle_21" data-name="Rectangle 21" width="18.706" height="2.337" rx="1.168" transform="translate(0 4.674)" fill="#d8d8d8"/>
        <rect id="Rectangle_22" data-name="Rectangle 22" width="18.706" height="2.337" rx="1.168" transform="translate(0 9.349)" fill="#d8d8d8"/>
      </g>
    </g>
    <g id="Group_17" data-name="Group 17" transform="translate(505.709 223.372)">
      <ellipse id="Ellipse_16" data-name="Ellipse 16" cx="10.276" cy="10.271" rx="10.276" ry="10.271" transform="translate(0 0)" fill="url(#linear-gradient)"/>
      <g id="Group_16" data-name="Group 16" transform="translate(31.512 2.054)">
        <rect id="Rectangle_23" data-name="Rectangle 23" width="39.39" height="3.652" rx="0.63" fill="#e1e8ee"/>
        <rect id="Rectangle_24" data-name="Rectangle 24" width="137.008" height="1.826" rx="0.63" transform="translate(0 7.304)" fill="#e1e8ee"/>
        <rect id="Rectangle_25" data-name="Rectangle 25" width="125.591" height="1.826" rx="0.63" transform="translate(0 10.956)" fill="#e1e8ee"/>
        <rect id="Rectangle_26" data-name="Rectangle 26" width="114.173" height="1.826" rx="0.63" transform="translate(0 14.607)" fill="#e1e8ee"/>
      </g>
    </g>
    <g id="Group_19" data-name="Group 19" transform="translate(505.709 317.864)">
      <ellipse id="Ellipse_17" data-name="Ellipse 17" cx="10.276" cy="10.271" rx="10.276" ry="10.271" transform="translate(0 0)" fill="url(#linear-gradient)"/>
      <g id="Group_18" data-name="Group 18" transform="translate(31.512 2.054)">
        <rect id="Rectangle_27" data-name="Rectangle 27" width="39.39" height="3.652" rx="0.63" fill="#e1e8ee"/>
        <rect id="Rectangle_28" data-name="Rectangle 28" width="137.008" height="1.826" rx="0.63" transform="translate(0 7.304)" fill="#e1e8ee"/>
        <rect id="Rectangle_29" data-name="Rectangle 29" width="125.591" height="1.826" rx="0.63" transform="translate(0 10.956)" fill="#e1e8ee"/>
        <rect id="Rectangle_30" data-name="Rectangle 30" width="114.173" height="1.826" rx="0.63" transform="translate(0 14.607)" fill="#e1e8ee"/>
      </g>
    </g>
    <g id="Group_21" data-name="Group 21" transform="translate(505.709 254.87)">
      <g id="Group_20" data-name="Group 20" transform="translate(31.512 2.054)">
        <rect id="Rectangle_31" data-name="Rectangle 31" width="39.39" height="3.652" rx="0.63" fill="#e1e8ee"/>
        <rect id="Rectangle_32" data-name="Rectangle 32" width="137.008" height="1.826" rx="0.63" transform="translate(0 7.304)" fill="#e1e8ee"/>
        <rect id="Rectangle_33" data-name="Rectangle 33" width="125.591" height="1.826" rx="0.63" transform="translate(0 10.956)" fill="#e1e8ee"/>
        <rect id="Rectangle_34" data-name="Rectangle 34" width="114.173" height="1.826" rx="0.63" transform="translate(0 14.607)" fill="#e1e8ee"/>
      </g>
      <ellipse id="Ellipse_18" data-name="Ellipse 18" cx="10.276" cy="10.271" rx="10.276" ry="10.271" transform="translate(0 0)" fill="url(#linear-gradient-2)"/>
    </g>
    <g id="Group_23" data-name="Group 23" transform="translate(505.709 349.361)">
      <g id="Group_22" data-name="Group 22" transform="translate(31.512 2.054)">
        <rect id="Rectangle_35" data-name="Rectangle 35" width="39.39" height="3.652" rx="0.63" fill="#e1e8ee"/>
        <rect id="Rectangle_36" data-name="Rectangle 36" width="137.008" height="1.826" rx="0.63" transform="translate(0 7.304)" fill="#e1e8ee"/>
        <rect id="Rectangle_37" data-name="Rectangle 37" width="125.591" height="1.826" rx="0.63" transform="translate(0 10.956)" fill="#e1e8ee"/>
        <rect id="Rectangle_38" data-name="Rectangle 38" width="114.173" height="1.826" rx="0.63" transform="translate(0 14.607)" fill="#e1e8ee"/>
      </g>
      <ellipse id="Ellipse_19" data-name="Ellipse 19" cx="10.276" cy="10.271" rx="10.276" ry="10.271" transform="translate(0 0)" fill="url(#linear-gradient-2)"/>
    </g>
    <g id="Group_25" data-name="Group 25" transform="translate(505.709 286.367)">
      <g id="Group_24" data-name="Group 24" transform="translate(31.512 2.054)">
        <rect id="Rectangle_39" data-name="Rectangle 39" width="39.39" height="3.652" rx="0.63" fill="#e1e8ee"/>
        <rect id="Rectangle_40" data-name="Rectangle 40" width="137.008" height="1.826" rx="0.63" transform="translate(0 7.304)" fill="#e1e8ee"/>
        <rect id="Rectangle_41" data-name="Rectangle 41" width="125.591" height="1.826" rx="0.63" transform="translate(0 10.956)" fill="#e1e8ee"/>
        <rect id="Rectangle_42" data-name="Rectangle 42" width="114.173" height="1.826" rx="0.63" transform="translate(0 14.607)" fill="#e1e8ee"/>
      </g>
      <ellipse id="Ellipse_20" data-name="Ellipse 20" cx="10.276" cy="10.271" rx="10.276" ry="10.271" transform="translate(0 0)" fill="url(#linear-gradient-3)"/>
    </g>
    <g id="Group_27" data-name="Group 27" transform="translate(505.709 380.858)">
      <g id="Group_26" data-name="Group 26" transform="translate(31.512 2.054)">
        <rect id="Rectangle_43" data-name="Rectangle 43" width="39.39" height="3.652" rx="0.63" fill="#e1e8ee"/>
        <rect id="Rectangle_44" data-name="Rectangle 44" width="137.008" height="1.826" rx="0.63" transform="translate(0 7.304)" fill="#e1e8ee"/>
        <rect id="Rectangle_45" data-name="Rectangle 45" width="125.591" height="1.826" rx="0.63" transform="translate(0 10.956)" fill="#e1e8ee"/>
        <rect id="Rectangle_46" data-name="Rectangle 46" width="114.173" height="1.826" rx="0.63" transform="translate(0 14.607)" fill="#e1e8ee"/>
      </g>
      <ellipse id="Ellipse_21" data-name="Ellipse 21" cx="10.276" cy="10.271" rx="10.276" ry="10.271" transform="translate(0 0)" fill="url(#linear-gradient-3)"/>
    </g>
    <g id="Group_29" data-name="Group 29" transform="translate(505.709 412.356)">
      <ellipse id="Ellipse_22" data-name="Ellipse 22" cx="10.276" cy="10.271" rx="10.276" ry="10.271" transform="translate(0 0)" fill="url(#linear-gradient)"/>
      <g id="Group_28" data-name="Group 28" transform="translate(31.512 2.054)">
        <rect id="Rectangle_47" data-name="Rectangle 47" width="39.39" height="3.652" rx="0.63" fill="#e1e8ee"/>
        <rect id="Rectangle_48" data-name="Rectangle 48" width="137.008" height="1.826" rx="0.63" transform="translate(0 7.304)" fill="#e1e8ee"/>
        <rect id="Rectangle_49" data-name="Rectangle 49" width="125.591" height="1.826" rx="0.63" transform="translate(0 10.956)" fill="#e1e8ee"/>
        <rect id="Rectangle_50" data-name="Rectangle 50" width="114.173" height="1.826" rx="0.63" transform="translate(0 14.607)" fill="#e1e8ee"/>
      </g>
    </g>
    <g id="Group_31" data-name="Group 31" transform="translate(505.709 443.853)">
      <g id="Group_30" data-name="Group 30" transform="translate(31.512 2.054)">
        <rect id="Rectangle_51" data-name="Rectangle 51" width="39.39" height="3.652" rx="0.63" fill="#e1e8ee"/>
        <rect id="Rectangle_52" data-name="Rectangle 52" width="137.008" height="1.826" rx="0.63" transform="translate(0 7.304)" fill="#e1e8ee"/>
        <rect id="Rectangle_53" data-name="Rectangle 53" width="125.591" height="1.826" rx="0.63" transform="translate(0 10.956)" fill="#e1e8ee"/>
        <rect id="Rectangle_54" data-name="Rectangle 54" width="114.173" height="1.826" rx="0.63" transform="translate(0 14.607)" fill="#e1e8ee"/>
      </g>
      <ellipse id="Ellipse_23" data-name="Ellipse 23" cx="10.276" cy="10.271" rx="10.276" ry="10.271" transform="translate(0 0)" fill="url(#linear-gradient-2)"/>
    </g>
  </g>
</svg>
